<svg data-v-423bf9ae="" xmlns="http://www.w3.org/2000/svg" viewBox="0 0 239.10713376777235 60" class="font"><!----><!----><!----><g data-v-423bf9ae="" id="d83155f6-4225-4966-9daa-2a74b590f654" fill="black" transform="matrix(5.952380997433594,0,0,5.952380997433594,-6.4880926952790645,-18.75000118641627)"><path d="M1.43 13.09L1.43 13.09Q1.29 13.09 1.19 12.99L1.19 12.99L1.19 12.99Q1.09 12.89 1.09 12.75L1.09 12.75L1.09 3.64L1.09 3.64Q1.09 3.49 1.18 3.39L1.18 3.39L1.18 3.39Q1.27 3.29 1.43 3.29L1.43 3.29L2.56 3.29L2.56 3.29Q2.83 3.29 2.98 3.56L2.98 3.56L5.68 8.57L8.39 3.56L8.39 3.56Q8.54 3.29 8.81 3.29L8.81 3.29L9.93 3.29L9.93 3.29Q10.08 3.29 10.18 3.39L10.18 3.39L10.18 3.39Q10.28 3.49 10.28 3.64L10.28 3.64L10.28 12.75L10.28 12.75Q10.28 12.91 10.18 13.00L10.18 13.00L10.18 13.00Q10.08 13.09 9.93 13.09L9.93 13.09L8.72 13.09L8.72 13.09Q8.58 13.09 8.48 12.99L8.48 12.99L8.48 12.99Q8.39 12.89 8.39 12.75L8.39 12.75L8.39 6.73L6.44 10.43L6.44 10.43Q6.29 10.74 5.98 10.74L5.98 10.74L5.39 10.74L5.39 10.74Q5.10 10.74 4.91 10.43L4.91 10.43L2.97 6.73L2.97 12.75L2.97 12.75Q2.97 12.89 2.88 12.99L2.88 12.99L2.88 12.99Q2.79 13.09 2.63 13.09L2.63 13.09L1.43 13.09ZM15.44 13.23L15.44 13.23Q13.87 13.23 12.96 12.33L12.96 12.33L12.96 12.33Q12.04 11.44 11.98 9.79L11.98 9.79L11.97 9.44L11.97 9.44Q11.97 7.69 12.89 6.68L12.89 6.68L12.89 6.68Q13.80 5.67 15.43 5.67L15.43 5.67L15.43 5.67Q17.09 5.67 18.00 6.68L18.00 6.68L18.00 6.68Q18.90 7.69 18.90 9.37L18.90 9.37L18.90 9.66L18.90 9.66Q18.90 9.80 18.80 9.90L18.80 9.90L18.80 9.90Q18.70 10.00 18.55 10.00L18.55 10.00L13.90 10.00L13.90 10.11L13.90 10.11Q13.93 10.89 14.33 11.40L14.33 11.40L14.33 11.40Q14.73 11.91 15.43 11.91L15.43 11.91L15.43 11.91Q16.23 11.91 16.73 11.27L16.73 11.27L16.73 11.27Q16.86 11.12 16.93 11.08L16.93 11.08L16.93 11.08Q17.00 11.05 17.16 11.05L17.16 11.05L18.40 11.05L18.40 11.05Q18.52 11.05 18.61 11.12L18.61 11.12L18.61 11.12Q18.70 11.19 18.70 11.31L18.70 11.31L18.70 11.31Q18.70 11.65 18.30 12.10L18.30 12.10L18.30 12.10Q17.91 12.56 17.16 12.89L17.16 12.89L17.16 12.89Q16.42 13.23 15.44 13.23L15.44 13.23ZM13.90 8.81L16.97 8.81L16.97 8.78L16.97 8.78Q16.97 7.95 16.55 7.46L16.55 7.46L16.55 7.46Q16.14 6.96 15.43 6.96L15.43 6.96L15.43 6.96Q14.71 6.96 14.31 7.46L14.31 7.46L14.31 7.46Q13.90 7.95 13.90 8.78L13.90 8.78L13.90 8.81ZM23.69 13.09L23.69 13.09Q22.41 13.09 21.77 12.43L21.77 12.43L21.77 12.43Q21.13 11.76 21.13 10.47L21.13 10.47L21.13 7.31L20.02 7.31L20.02 7.31Q19.88 7.31 19.78 7.21L19.78 7.21L19.78 7.21Q19.68 7.11 19.68 6.97L19.68 6.97L19.68 6.15L19.68 6.15Q19.68 6.01 19.78 5.91L19.78 5.91L19.78 5.91Q19.88 5.81 20.02 5.81L20.02 5.81L21.13 5.81L21.13 3.49L21.13 3.49Q21.13 3.33 21.22 3.24L21.22 3.24L21.22 3.24Q21.32 3.15 21.46 3.15L21.46 3.15L22.62 3.15L22.62 3.15Q22.78 3.15 22.87 3.24L22.87 3.24L22.87 3.24Q22.96 3.33 22.96 3.49L22.96 3.49L22.96 5.81L24.71 5.81L24.71 5.81Q24.85 5.81 24.95 5.91L24.95 5.91L24.95 5.91Q25.05 6.01 25.05 6.15L25.05 6.15L25.05 6.97L25.05 6.97Q25.05 7.11 24.95 7.21L24.95 7.21L24.95 7.21Q24.85 7.31 24.71 7.31L24.71 7.31L22.96 7.31L22.96 10.32L22.96 10.32Q22.96 10.92 23.17 11.23L23.17 11.23L23.17 11.23Q23.38 11.54 23.86 11.54L23.86 11.54L24.84 11.54L24.84 11.54Q24.99 11.54 25.08 11.63L25.08 11.63L25.08 11.63Q25.17 11.72 25.17 11.87L25.17 11.87L25.17 12.75L25.17 12.75Q25.17 12.89 25.08 12.99L25.08 12.99L25.08 12.99Q24.99 13.09 24.84 13.09L24.84 13.09L23.69 13.09ZM29.57 13.23L29.57 13.23Q28 13.23 27.08 12.33L27.08 12.33L27.08 12.33Q26.17 11.44 26.11 9.79L26.11 9.79L26.10 9.44L26.10 9.44Q26.10 7.69 27.01 6.68L27.01 6.68L27.01 6.68Q27.93 5.67 29.55 5.67L29.55 5.67L29.55 5.67Q31.22 5.67 32.12 6.68L32.12 6.68L32.12 6.68Q33.03 7.69 33.03 9.37L33.03 9.37L33.03 9.66L33.03 9.66Q33.03 9.80 32.93 9.90L32.93 9.90L32.93 9.90Q32.83 10.00 32.68 10.00L32.68 10.00L28.03 10.00L28.03 10.11L28.03 10.11Q28.06 10.89 28.45 11.40L28.45 11.40L28.45 11.40Q28.85 11.91 29.55 11.91L29.55 11.91L29.55 11.91Q30.35 11.91 30.86 11.27L30.86 11.27L30.86 11.27Q30.98 11.12 31.05 11.08L31.05 11.08L31.05 11.08Q31.12 11.05 31.29 11.05L31.29 11.05L32.52 11.05L32.52 11.05Q32.65 11.05 32.74 11.12L32.74 11.12L32.74 11.12Q32.83 11.19 32.83 11.31L32.83 11.31L32.83 11.31Q32.83 11.65 32.43 12.10L32.43 12.10L32.43 12.10Q32.03 12.56 31.29 12.89L31.29 12.89L31.29 12.89Q30.55 13.23 29.57 13.23L29.57 13.23ZM28.03 8.81L31.09 8.81L31.09 8.78L31.09 8.78Q31.09 7.95 30.68 7.46L30.68 7.46L30.68 7.46Q30.27 6.96 29.55 6.96L29.55 6.96L29.55 6.96Q28.84 6.96 28.43 7.46L28.43 7.46L28.43 7.46Q28.03 7.95 28.03 8.78L28.03 8.78L28.03 8.81ZM37.74 13.23L37.74 13.23Q36.09 13.23 35.20 12.39L35.20 12.39L35.20 12.39Q34.30 11.55 34.23 10.07L34.23 10.07L34.22 9.45L34.23 8.83L34.23 8.83Q34.30 7.36 35.21 6.52L35.21 6.52L35.21 6.52Q36.12 5.67 37.74 5.67L37.74 5.67L37.74 5.67Q39.35 5.67 40.26 6.52L40.26 6.52L40.26 6.52Q41.17 7.36 41.24 8.83L41.24 8.83L41.24 8.83Q41.26 9.00 41.26 9.45L41.26 9.45L41.26 9.45Q41.26 9.90 41.24 10.07L41.24 10.07L41.24 10.07Q41.17 11.55 40.28 12.39L40.28 12.39L40.28 12.39Q39.38 13.23 37.74 13.23L37.74 13.23ZM37.74 11.82L37.74 11.82Q38.49 11.82 38.88 11.35L38.88 11.35L38.88 11.35Q39.28 10.89 39.31 10.00L39.31 10.00L39.31 10.00Q39.33 9.86 39.33 9.45L39.33 9.45L39.33 9.45Q39.33 9.04 39.31 8.90L39.31 8.90L39.31 8.90Q39.28 8.01 38.88 7.54L38.88 7.54L38.88 7.54Q38.47 7.07 37.74 7.07L37.74 7.07L37.74 7.07Q37.00 7.07 36.60 7.54L36.60 7.54L36.60 7.54Q36.19 8.01 36.16 8.90L36.16 8.90L36.15 9.45L36.16 10.00L36.16 10.00Q36.19 10.89 36.60 11.35L36.60 11.35L36.60 11.35Q37.00 11.82 37.74 11.82L37.74 11.82Z"></path></g><!----><!----></svg>