<?xml version="1.0" standalone="no"?>
<!DOCTYPE svg PUBLIC "-//W3C//DTD SVG 20010904//EN"
 "http://www.w3.org/TR/2001/REC-SVG-20010904/DTD/svg10.dtd">
<svg version="1.0" xmlns="http://www.w3.org/2000/svg"
 width="776.000000pt" height="776.000000pt" viewBox="0 0 776.000000 776.000000"
 preserveAspectRatio="xMidYMid meet">
<metadata>
Created by potrace 1.14, written by Peter Selinger 2001-2017
</metadata>
<g transform="translate(0.000000,776.000000) scale(0.100000,-0.100000)"
fill="#000000" stroke="none">
<path d="M2710 7436 c-30 -18 -82 -47 -115 -65 -33 -18 -64 -36 -70 -41 -5 -4
-30 -19 -55 -32 -25 -14 -106 -60 -180 -103 -74 -43 -196 -113 -270 -155 -74
-43 -155 -90 -180 -104 -25 -15 -53 -29 -62 -33 -10 -3 -18 -9 -18 -14 0 -5
-4 -9 -9 -9 -9 0 -123 -65 -701 -398 -129 -75 -248 -143 -265 -151 -16 -9 -31
-19 -33 -23 -2 -5 -9 -8 -16 -8 -6 0 -27 -11 -46 -23 -19 -13 -60 -37 -90 -54
-30 -16 -115 -64 -188 -106 -73 -42 -137 -77 -142 -77 -6 0 -10 -4 -10 -10 0
-5 -5 -10 -10 -10 -6 0 -35 -15 -65 -34 -29 -19 -56 -32 -59 -29 -3 4 -6 1 -6
-5 0 -7 -5 -12 -10 -12 -6 0 -28 -12 -50 -26 l-40 -27 0 -1581 c0 -1495 1
-1582 17 -1592 21 -12 93 -53 173 -97 30 -17 57 -34 58 -39 2 -4 7 -8 12 -8 7
0 374 -207 515 -291 17 -10 53 -30 80 -44 28 -15 55 -31 61 -36 6 -5 31 -20
55 -33 62 -33 93 -50 99 -56 3 -3 14 -10 25 -16 44 -24 114 -64 199 -113 49
-28 93 -51 97 -51 5 0 9 -4 9 -10 0 -5 4 -10 10 -10 5 0 33 -14 62 -32 29 -17
69 -40 88 -50 19 -10 49 -27 65 -37 17 -10 50 -29 75 -43 90 -50 125 -72 128
-80 2 -4 10 -8 18 -8 8 0 51 -22 95 -50 44 -27 83 -50 85 -50 2 0 21 -10 42
-23 20 -13 62 -37 92 -54 59 -32 76 -42 213 -122 49 -28 93 -51 98 -51 5 0 9
-4 9 -10 0 -5 4 -10 9 -10 9 0 97 -49 161 -89 14 -8 27 -16 30 -16 3 0 21 -10
42 -23 l36 -23 52 31 c28 16 55 30 60 30 6 0 10 3 10 8 0 4 23 18 50 31 28 14
50 29 50 33 0 4 3 7 8 6 4 -1 41 17 82 41 41 24 128 74 194 112 65 38 122 69
127 69 5 0 9 5 9 10 0 6 4 10 10 10 5 0 53 25 107 57 54 31 114 65 133 76 19
10 64 36 100 57 36 21 81 47 100 58 19 11 106 61 194 111 87 50 161 91 165 91
4 0 15 -15 24 -32 21 -41 47 -88 120 -210 31 -53 57 -100 57 -104 0 -4 6 -15
14 -23 7 -9 25 -36 38 -61 14 -25 48 -85 77 -133 28 -49 51 -93 51 -98 0 -5 3
-9 8 -9 4 0 12 -10 18 -23 23 -49 59 -112 67 -115 4 -2 7 -10 7 -18 0 -8 4
-14 9 -14 5 0 13 -10 17 -22 3 -13 25 -54 49 -93 23 -38 45 -77 48 -85 4 -8
16 -28 27 -45 10 -16 25 -41 33 -55 38 -68 74 -132 114 -198 24 -41 43 -78 43
-83 0 -5 5 -9 10 -9 6 0 10 -4 10 -10 0 -9 139 -250 145 -250 2 0 32 50 67
112 34 61 72 127 84 147 119 204 234 405 234 408 0 2 12 20 26 39 15 19 23 34
19 34 -3 0 3 12 14 26 12 15 21 33 21 40 0 8 5 14 10 14 6 0 10 4 10 9 0 9
142 258 158 276 5 6 11 15 13 20 5 13 92 166 130 230 16 28 33 57 36 65 4 8 9
17 12 20 4 3 12 16 18 30 7 14 24 43 37 65 14 22 33 56 43 75 9 19 20 37 23
40 3 3 32 52 65 110 33 58 62 107 65 110 4 3 16 25 29 50 12 25 31 59 41 75
10 17 25 41 33 55 51 91 106 185 143 247 24 40 44 74 44 77 0 2 25 45 55 95
30 51 55 96 55 101 0 6 4 10 8 10 5 0 14 16 22 35 8 19 17 35 22 35 4 0 8 4 8
9 0 4 48 91 106 192 101 174 143 249 168 294 6 11 16 27 22 35 6 8 23 35 36
60 14 25 48 85 77 134 28 49 51 93 51 97 0 5 5 9 10 9 6 0 10 4 10 9 0 8 16
37 77 139 11 21 36 65 54 99 19 35 37 63 41 63 5 0 8 4 8 10 0 5 14 33 31 62
18 29 43 73 57 98 14 25 33 59 43 75 19 31 56 97 102 177 15 26 24 49 19 51
-4 3 -459 5 -1012 6 -553 0 -1032 1 -1065 1 l-60 0 0 666 c0 366 -2 669 -5
673 -4 6 -240 145 -320 188 -14 8 -38 22 -55 32 -36 22 -95 55 -155 89 -25 13
-49 28 -55 32 -5 4 -30 19 -55 32 -25 14 -85 48 -133 77 -49 28 -93 51 -98 51
-5 0 -9 5 -9 10 0 6 -4 10 -9 10 -8 0 -230 123 -271 150 -8 6 -26 16 -40 22
-14 7 -27 15 -30 18 -5 6 -126 76 -170 97 -14 7 -38 21 -55 32 -35 21 -57 34
-225 130 -69 39 -132 76 -140 81 -8 6 -27 16 -42 23 -16 6 -28 15 -28 19 0 4
-4 8 -10 8 -5 0 -81 41 -167 91 -87 51 -178 103 -203 117 -25 14 -103 59 -175
100 -227 132 -300 172 -310 171 -5 0 -35 -15 -65 -33z m4140 -3374 c0 -4 -11
-24 -25 -45 -14 -20 -23 -37 -19 -37 4 0 0 -8 -8 -17 -16 -19 -158 -261 -158
-269 0 -3 -11 -20 -25 -38 -14 -18 -23 -35 -20 -38 3 -3 -1 -11 -10 -18 -8 -7
-15 -16 -15 -20 0 -7 -172 -305 -187 -325 -4 -6 -18 -28 -30 -50 -23 -44 -26
-48 -130 -230 -40 -69 -73 -130 -73 -135 0 -4 -3 -10 -8 -12 -4 -1 -38 -57
-76 -123 -38 -66 -128 -221 -200 -345 -71 -124 -137 -238 -145 -255 -9 -16
-19 -32 -22 -35 -3 -3 -19 -30 -36 -60 -16 -30 -48 -86 -71 -124 -23 -37 -42
-69 -42 -71 0 -2 -20 -38 -45 -79 -25 -42 -45 -79 -45 -82 0 -3 -5 -10 -10
-17 -6 -7 -62 -101 -124 -209 l-112 -197 -31 52 c-17 29 -40 69 -52 90 -29 52
-46 80 -151 262 -51 88 -101 174 -110 190 -44 77 -94 162 -108 185 -9 14 -15
27 -15 30 1 3 -4 12 -11 20 -8 8 -25 35 -38 60 -14 25 -36 63 -48 85 -13 22
-37 64 -54 94 -17 29 -41 70 -53 90 -24 41 -37 64 -78 136 -16 28 -48 83 -72
123 -24 41 -43 78 -43 83 0 5 -3 9 -7 9 -5 0 -13 10 -19 23 -15 33 -58 111
-64 117 -5 5 -15 22 -58 99 -13 25 -33 58 -43 73 -11 14 -19 29 -19 32 0 4
-11 25 -26 47 -14 22 -34 56 -44 75 -11 18 -70 120 -131 226 -61 106 -120 208
-130 226 -11 17 -29 49 -41 70 -12 20 -28 50 -37 65 -9 16 -20 36 -26 45 -5
10 -32 55 -59 102 -27 47 -52 87 -55 90 -3 3 -7 13 -9 22 -3 17 83 18 1633 18
899 0 1635 -4 1635 -8z"/>
</g>
</svg>
